<mxfile host="app.diagrams.net" modified="2025-03-02T14:44:49.420Z" agent="Mozilla/5.0 (Windows NT 10.0; Win64; x64) AppleWebKit/537.36 (KHTML, like Gecko) Chrome/132.0.0.0 Safari/537.36" version="23.1.5" etag="ipVlAIMbZ2vumNS_H6hV" type="github">
  <diagram name="第 1 页" id="A1MJYrICQr1loOPpgWdV">
    <mxGraphModel>
      <root>
        <mxCell id="0" />
        <mxCell id="1" parent="0" />
      </root>
    </mxGraphModel>
  </diagram>
</mxfile>
